<svg xmlns="http://www.w3.org/2000/svg" xmlns:xlink="http://www.w3.org/1999/xlink" width="75" zoomAndPan="magnify" viewBox="0 0 56.879997 56.999997" height="75" preserveAspectRatio="xMidYMid meet" version="1.0"><defs><clipPath id="4d409095aa"><path d="M 0 0.0585938 L 56.761719 0.0585938 L 56.761719 56.9375 L 0 56.9375 Z M 0 0.0585938 " clip-rule="nonzero"/></clipPath><clipPath id="22a8cdc2a4"><path d="M 9 8 L 48 8 L 48 47.085938 L 9 47.085938 Z M 9 8 " clip-rule="nonzero"/></clipPath><clipPath id="3277c28d4a"><path d="M 13.207031 16.726562 L 43.144531 16.726562 L 43.144531 37.683594 L 13.207031 37.683594 Z M 13.207031 16.726562 " clip-rule="nonzero"/></clipPath></defs><g clip-path="url(#4d409095aa)"><path fill="#ffffff" d="M 0 0.0585938 L 56.878906 0.0585938 L 56.878906 56.941406 L 0 56.941406 Z M 0 0.0585938 " fill-opacity="1" fill-rule="nonzero"/><path fill="#ffffff" d="M 0 0.0585938 L 56.878906 0.0585938 L 56.878906 56.941406 L 0 56.941406 Z M 0 0.0585938 " fill-opacity="1" fill-rule="nonzero"/></g><g clip-path="url(#22a8cdc2a4)"><path fill="#2c78d1" d="M 28.480469 47.289062 C 27.53125 47.289062 26.585938 47.21875 25.644531 47.078125 C 24.703125 46.9375 23.78125 46.730469 22.871094 46.457031 C 21.960938 46.179688 21.074219 45.839844 20.214844 45.433594 C 19.355469 45.023438 18.53125 44.558594 17.742188 44.03125 C 16.949219 43.5 16.203125 42.917969 15.5 42.28125 C 14.792969 41.640625 14.140625 40.953125 13.535156 40.21875 C 12.933594 39.484375 12.386719 38.710938 11.898438 37.894531 C 11.410156 37.078125 10.984375 36.230469 10.621094 35.351562 C 10.253906 34.472656 9.957031 33.574219 9.726562 32.652344 C 9.496094 31.730469 9.335938 30.796875 9.242188 29.847656 C 9.148438 28.902344 9.125 27.953125 9.171875 27.003906 C 9.21875 26.054688 9.332031 25.113281 9.519531 24.183594 C 9.703125 23.25 9.957031 22.335938 10.277344 21.441406 C 10.597656 20.546875 10.984375 19.679688 11.429688 18.839844 C 11.878906 18 12.386719 17.199219 12.953125 16.4375 C 13.519531 15.671875 14.136719 14.957031 14.8125 14.28125 C 15.257812 13.832031 15.726562 13.40625 16.214844 13.003906 C 16.703125 12.597656 17.214844 12.21875 17.738281 11.867188 C 18.265625 11.511719 18.808594 11.183594 19.367188 10.882812 C 19.925781 10.582031 20.5 10.3125 21.085938 10.066406 C 21.667969 9.824219 22.265625 9.609375 22.871094 9.421875 C 23.480469 9.238281 24.09375 9.082031 24.714844 8.957031 C 25.335938 8.832031 25.964844 8.738281 26.59375 8.675781 C 27.226562 8.613281 27.859375 8.578125 28.492188 8.578125 C 29.128906 8.578125 29.761719 8.609375 30.394531 8.667969 C 31.023438 8.730469 31.652344 8.824219 32.273438 8.945312 C 32.894531 9.070312 33.511719 9.222656 34.117188 9.40625 C 34.726562 9.589844 35.320312 9.800781 35.910156 10.042969 C 36.496094 10.285156 37.066406 10.558594 37.628906 10.855469 C 38.1875 11.15625 38.730469 11.480469 39.257812 11.832031 C 39.785156 12.183594 40.296875 12.5625 40.785156 12.964844 C 41.277344 13.367188 41.746094 13.792969 42.195312 14.242188 C 42.644531 14.691406 43.070312 15.160156 43.472656 15.648438 C 43.875 16.140625 44.25 16.648438 44.601562 17.175781 C 44.953125 17.703125 45.28125 18.25 45.578125 18.808594 C 45.878906 19.367188 46.148438 19.941406 46.390625 20.527344 C 46.632812 21.113281 46.847656 21.710938 47.03125 22.316406 C 47.214844 22.925781 47.367188 23.539062 47.488281 24.160156 C 47.613281 24.785156 47.703125 25.410156 47.765625 26.042969 C 47.828125 26.675781 47.859375 27.308594 47.855469 27.941406 C 47.855469 28.574219 47.824219 29.207031 47.761719 29.839844 C 47.699219 30.472656 47.601562 31.097656 47.476562 31.71875 C 47.351562 32.34375 47.199219 32.957031 47.011719 33.5625 C 46.828125 34.167969 46.613281 34.765625 46.367188 35.351562 C 46.125 35.9375 45.851562 36.507812 45.550781 37.066406 C 45.25 37.625 44.925781 38.167969 44.570312 38.695312 C 44.214844 39.222656 43.835938 39.730469 43.433594 40.21875 C 43.03125 40.710938 42.601562 41.175781 42.152344 41.625 C 41.257812 42.523438 40.28125 43.328125 39.226562 44.035156 C 38.171875 44.742188 37.058594 45.339844 35.886719 45.824219 C 34.710938 46.3125 33.5 46.675781 32.257812 46.921875 C 31.011719 47.167969 29.753906 47.292969 28.480469 47.289062 Z M 28.480469 9.339844 C 18.21875 9.339844 9.867188 17.691406 9.867188 27.953125 C 9.867188 38.21875 18.21875 46.566406 28.480469 46.566406 C 38.746094 46.566406 47.09375 38.21875 47.09375 27.953125 C 47.09375 17.691406 38.746094 9.339844 28.480469 9.339844 Z M 28.480469 9.339844 " fill-opacity="1" fill-rule="nonzero"/></g><g clip-path="url(#3277c28d4a)"><path fill="#2b5edf" d="M 20.292969 25.503906 L 20.292969 28.273438 L 28.320312 16.726562 L 36.347656 28.273438 L 36.347656 25.5 L 37.425781 24.660156 L 37.429688 24.660156 L 37.429688 29.824219 L 39.351562 32.589844 L 39.351562 23.160156 L 40.429688 22.316406 L 40.433594 22.316406 L 40.433594 34.144531 L 42.351562 36.90625 L 42.351562 20.8125 L 43.433594 19.96875 L 43.433594 38 L 41.796875 38 L 28.320312 18.617188 L 14.847656 38 L 13.210938 38 L 13.210938 19.96875 L 14.292969 20.8125 L 14.292969 36.90625 L 16.210938 34.144531 L 16.210938 22.316406 L 16.214844 22.316406 L 17.292969 23.160156 L 17.292969 32.589844 L 19.210938 29.828125 L 19.210938 24.664062 L 19.21875 24.664062 Z M 28.320312 29.136719 L 34.484375 38 L 35.800781 38 L 28.320312 27.246094 L 20.84375 38 L 22.160156 38 Z M 28.320312 23.878906 L 38.136719 38 L 39.453125 38 L 28.320312 21.984375 L 17.1875 38 L 18.5 38 Z M 28.320312 23.878906 " fill-opacity="1" fill-rule="evenodd"/></g></svg>